<svg width="1024" height="1025" viewBox="0 0 1024 1025" fill="none" xmlns="http://www.w3.org/2000/svg">
<path d="M622.206 454C652.645 454 677.412 478.959 677.412 509.86C677.412 540.762 652.645 565.721 622.206 565.721C591.768 565.721 567 540.762 567 509.86C567 478.958 591.768 454 622.206 454ZM792.353 454C822.791 454 847.559 478.958 847.559 509.86C847.559 540.762 822.791 565.721 792.353 565.721C761.914 565.72 737.147 540.762 737.147 509.86C737.147 478.959 761.914 454 792.353 454Z" fill="white" stroke="#431B11" stroke-width="10"/>
<path d="M586.214 509.86C586.214 529.738 602.328 545.853 622.206 545.853C642.084 545.853 658.199 529.738 658.199 509.86C658.199 489.982 642.084 473.868 622.206 473.868C602.328 473.868 586.214 489.982 586.214 509.86Z" fill="#431B11"/>
<path d="M756.36 509.86C756.36 529.738 772.475 545.853 792.353 545.853C812.231 545.853 828.345 529.738 828.345 509.86C828.345 489.982 812.231 473.868 792.353 473.868C772.475 473.868 756.36 489.982 756.36 509.86Z" fill="#431B11"/>
<path d="M631.914 497.402C631.914 502.637 636.158 506.881 641.392 506.881C646.627 506.881 650.871 502.637 650.871 497.402C650.871 492.168 646.627 487.924 641.392 487.924C636.158 487.924 631.914 492.168 631.914 497.402Z" fill="white"/>
<path d="M800.453 497.402C800.453 502.637 804.696 506.881 809.931 506.881C815.166 506.881 819.409 502.637 819.409 497.402C819.409 492.168 815.166 487.924 809.931 487.924C804.696 487.924 800.453 492.168 800.453 497.402Z" fill="white"/>
<path d="M672.756 508.717C679.346 504.683 686.679 502.464 694.103 501.491C703.024 500.322 712.078 500.951 720.14 502.388C728.97 503.962 736.609 506.505 741.578 508.717C741.753 517.933 739.643 533.755 732.29 548.286C726.998 558.745 718.991 568.535 707.167 574.712C695.343 568.535 687.336 558.745 682.044 548.286C674.691 533.755 672.58 517.933 672.756 508.717Z" fill="#FEE857" stroke="#431B11" stroke-width="10" stroke-linejoin="round"/>
<path d="M959.544 542.4C959.544 550.933 956.41 557.6 950.144 562.4C943.877 567.2 934.81 569.6 922.944 569.6C912.81 569.6 904.544 568.067 898.144 565C891.744 561.8 888.544 558.333 888.544 554.6C888.544 553 888.944 551.467 889.744 550C890.677 548.4 892.01 547.133 893.744 546.2C897.344 548.733 901.544 551.067 906.344 553.2C911.144 555.333 916.61 556.4 922.744 556.4C936.61 556.4 943.544 551.733 943.544 542.4C943.544 538.533 942.344 535.4 939.944 533C937.677 530.467 934.277 528.667 929.744 527.6L913.144 523.2C905.01 521.2 899.077 518.133 895.344 514C891.61 509.733 889.744 504.467 889.744 498.2C889.744 491.133 892.61 485 898.344 479.8C904.077 474.6 912.81 472 924.544 472C930.81 472 936.277 472.667 940.944 474C945.61 475.2 949.21 476.867 951.744 479C954.41 481 955.744 483.2 955.744 485.6C955.744 487.333 955.277 488.867 954.344 490.2C953.544 491.533 952.41 492.533 950.944 493.2C949.344 492.133 947.277 491 944.744 489.8C942.344 488.467 939.477 487.4 936.144 486.6C932.81 485.667 929.144 485.2 925.144 485.2C919.277 485.2 914.544 486.333 910.944 488.6C907.344 490.867 905.544 494.067 905.544 498.2C905.544 501.133 906.544 503.733 908.544 506C910.677 508.133 914.01 509.733 918.544 510.8L932.344 514.2C941.41 516.333 948.21 519.733 952.744 524.4C957.277 528.933 959.544 534.933 959.544 542.4Z" fill="#FAF7F2"/>
<path d="M883.808 479.6C882.874 481.467 881.874 482.867 880.808 483.8C879.741 484.6 878.275 485 876.408 485C875.208 485 874.008 484.8 872.808 484.4C871.741 483.867 870.808 483.333 870.008 482.8C870.674 479.467 871.341 475.467 872.008 470.8C872.808 466.133 873.474 461.4 874.008 456.6C874.674 451.667 875.141 447.2 875.408 443.2C876.608 442.8 877.808 442.533 879.008 442.4C880.208 442.133 881.541 442 883.008 442C885.274 442 887.075 442.667 888.408 444C889.875 445.2 890.608 447.133 890.608 449.8C890.608 452.333 890.208 455.6 889.408 459.6C888.608 463.6 887.674 467.467 886.608 471.2C885.541 474.8 884.608 477.6 883.808 479.6Z" fill="#FAF7F2"/>
<path d="M497.756 524.8L487.756 517L533.356 472.8C536.556 472.933 539.023 473.733 540.756 475.2C542.623 476.533 543.556 478.333 543.556 480.6C543.556 482.467 542.956 484.133 541.756 485.6C540.69 487.067 539.09 488.667 536.956 490.4L497.756 524.8ZM487.356 519.6L498.556 513L549.356 558.6C549.09 561.533 548.156 563.867 546.556 565.6C545.09 567.333 543.09 568.2 540.556 568.2C538.556 568.2 536.69 567.667 534.956 566.6C533.356 565.533 531.69 564.133 529.956 562.4L487.356 519.6ZM473.556 513.4L489.556 515.8V566.6C488.89 566.867 487.89 567.133 486.556 567.4C485.223 567.8 483.756 568 482.156 568C479.356 568 477.223 567.467 475.756 566.4C474.29 565.2 473.556 563.333 473.556 560.8V513.4ZM489.556 523.6L473.556 521.2V437.4C474.223 437.133 475.223 436.867 476.556 436.6C478.023 436.2 479.556 436 481.156 436C483.956 436 486.023 436.6 487.356 437.8C488.823 438.867 489.556 440.667 489.556 443.2V523.6Z" fill="#FAF7F2"/>
<path d="M383.245 531L382.445 518.4L442.845 510.2C442.312 502.867 439.779 496.867 435.245 492.2C430.712 487.4 424.445 485 416.445 485C408.179 485 401.312 488 395.845 494C390.512 499.867 387.845 508.333 387.845 519.4V523.8C388.779 534.467 392.245 542.6 398.245 548.2C404.379 553.667 412.712 556.4 423.245 556.4C428.845 556.4 433.912 555.467 438.445 553.6C442.979 551.733 446.579 549.733 449.245 547.6C450.712 548.533 451.845 549.667 452.645 551C453.579 552.2 454.045 553.6 454.045 555.2C454.045 557.733 452.579 560.133 449.645 562.4C446.845 564.533 443.045 566.267 438.245 567.6C433.579 568.933 428.312 569.6 422.445 569.6C412.179 569.6 403.245 567.733 395.645 564C388.179 560.267 382.379 554.733 378.245 547.4C374.245 539.933 372.245 530.867 372.245 520.2C372.245 512.6 373.312 505.867 375.445 500C377.712 494 380.779 488.933 384.645 484.8C388.645 480.667 393.379 477.533 398.845 475.4C404.312 473.133 410.245 472 416.645 472C424.779 472 431.912 473.733 438.045 477.2C444.312 480.667 449.179 485.533 452.645 491.8C456.245 497.933 458.045 505 458.045 513C458.045 515.933 457.379 518.067 456.045 519.4C454.712 520.6 452.845 521.333 450.445 521.6L383.245 531Z" fill="#FAF7F2"/>
<path d="M287.534 531L286.734 518.4L347.134 510.2C346.601 502.867 344.068 496.867 339.534 492.2C335.001 487.4 328.734 485 320.734 485C312.468 485 305.601 488 300.134 494C294.801 499.867 292.134 508.333 292.134 519.4V523.8C293.068 534.467 296.534 542.6 302.534 548.2C308.668 553.667 317.001 556.4 327.534 556.4C333.134 556.4 338.201 555.467 342.734 553.6C347.268 551.733 350.868 549.733 353.534 547.6C355.001 548.533 356.134 549.667 356.934 551C357.868 552.2 358.334 553.6 358.334 555.2C358.334 557.733 356.868 560.133 353.934 562.4C351.134 564.533 347.334 566.267 342.534 567.6C337.868 568.933 332.601 569.6 326.734 569.6C316.468 569.6 307.534 567.733 299.934 564C292.468 560.267 286.668 554.733 282.534 547.4C278.534 539.933 276.534 530.867 276.534 520.2C276.534 512.6 277.601 505.867 279.734 500C282.001 494 285.068 488.933 288.934 484.8C292.934 480.667 297.668 477.533 303.134 475.4C308.601 473.133 314.534 472 320.934 472C329.068 472 336.201 473.733 342.334 477.2C348.601 480.667 353.468 485.533 356.934 491.8C360.534 497.933 362.334 505 362.334 513C362.334 515.933 361.668 518.067 360.334 519.4C359.001 520.6 357.134 521.333 354.734 521.6L287.534 531Z" fill="#FAF7F2"/>
<path d="M259.778 527.2H243.778V508.8C243.778 500.8 241.511 494.867 236.978 491C232.578 487.133 226.845 485.2 219.778 485.2C214.578 485.2 209.711 486.2 205.178 488.2C200.778 490.2 197.045 492.6 193.978 495.4L190.978 482.4C194.178 480.133 198.378 477.867 203.578 475.6C208.911 473.2 215.045 472 221.978 472C233.045 472 242.111 475 249.178 481C256.245 487 259.778 496.133 259.778 508.4V527.2ZM179.978 514.2H195.978V566.6C195.311 566.867 194.311 567.133 192.978 567.4C191.645 567.8 190.178 568 188.578 568C185.778 568 183.645 567.467 182.178 566.4C180.711 565.2 179.978 563.333 179.978 560.8V514.2ZM243.778 514.4L259.778 514.6V566.6C259.111 566.867 258.045 567.133 256.578 567.4C255.245 567.8 253.845 568 252.378 568C249.445 568 247.245 567.467 245.778 566.4C244.445 565.2 243.778 563.333 243.778 560.8V514.4ZM195.978 522H179.978V437.4C180.645 437.133 181.645 436.867 182.978 436.6C184.445 436.2 185.978 436 187.578 436C190.378 436 192.445 436.6 193.778 437.8C195.245 438.867 195.978 440.667 195.978 443.2V522Z" fill="#FAF7F2"/>
<path d="M161.6 458.8C161.6 460.533 161 462.133 159.8 463.6C158.733 464.933 157.467 465.933 156 466.6C152.667 464.2 148.6 461.933 143.8 459.8C139.133 457.667 133.067 456.6 125.6 456.6C117.467 456.6 110.133 458.467 103.6 462.2C97.2 465.933 92.0667 471.533 88.2 479C84.4667 486.333 82.6 495.467 82.6 506.4C82.6 522.8 86.6 535.133 94.6 543.4C102.733 551.667 113.267 555.8 126.2 555.8C133.133 555.8 139.2 554.8 144.4 552.8C149.6 550.8 153.867 548.533 157.2 546C158.533 546.533 159.8 547.533 161 549C162.2 550.333 162.8 551.933 162.8 553.8C162.8 555.133 162.4 556.467 161.6 557.8C160.933 559 159.733 560.2 158 561.4C154.933 563.533 150.733 565.4 145.4 567C140.067 568.733 133.267 569.6 125 569.6C113.933 569.6 103.867 567.267 94.8 562.6C85.8667 557.8 78.8 550.733 73.6 541.4C68.4 532.067 65.8 520.4 65.8 506.4C65.8 492.4 68.4667 480.667 73.8 471.2C79.2667 461.733 86.4 454.667 95.2 450C104.133 445.2 113.867 442.8 124.4 442.8C131.733 442.8 138.2 443.6 143.8 445.2C149.4 446.8 153.733 448.867 156.8 451.4C160 453.8 161.6 456.267 161.6 458.8Z" fill="#FAF7F2"/>
</svg>
